<svg xmlns="http://www.w3.org/2000/svg" viewBox="0 0 1600 720" width="100%" height="100%">
  <defs>
    <linearGradient id="bgGrad" x1="0" y1="0" x2="1" y2="1">
      <stop offset="0%" stop-color="#0A0A0C"/>
      <stop offset="50%" stop-color="#141418"/>
      <stop offset="100%" stop-color="#1B1518"/>
    </linearGradient>
    <linearGradient id="shelfGlow" x1="0" y1="0" x2="0" y2="1">
      <stop offset="0%" stop-color="#FFE4B5" stop-opacity="0.55"/>
      <stop offset="30%" stop-color="#D90429" stop-opacity="0.18"/>
      <stop offset="100%" stop-color="#000000" stop-opacity="0"/>
    </linearGradient>
    <linearGradient id="redLed" x1="0" y1="0" x2="1" y2="0">
      <stop offset="0%" stop-color="#D90429" stop-opacity="0.9"/>
      <stop offset="50%" stop-color="#FF4D6D" stop-opacity="1"/>
      <stop offset="100%" stop-color="#D90429" stop-opacity="0.9"/>
    </linearGradient>

    <!-- Reusable Air Jordan 1 High Template -->
    <g id="jordan-red">
      <path d="M4 58 L92 58 C96 58 98 62 94 65 L6 65 C2 65 2 58 4 58 Z" fill="#FFFFFF"/>
      <path d="M4 63 L95 63 L95 67 L4 67 Z" fill="#D90429"/>
      <path d="M8 58 C10 42 28 36 46 30 L66 10 C72 8 78 12 80 20 L88 20 C92 24 93 38 92 58 Z" fill="#FFFFFF"/>
      <path d="M8 58 C10 46 24 42 38 42 L44 58 Z" fill="#D90429"/>
      <path d="M58 28 L88 22 L92 58 L66 58 Z" fill="#D90429"/>
      <path d="M64 12 L78 16 L72 30 L58 26 Z" fill="#111111"/>
      <path d="M42 38 L78 30 L74 38 L44 45 Z" fill="#111111"/>
    </g>

    <g id="jordan-blue">
      <path d="M4 58 L92 58 C96 58 98 62 94 65 L6 65 Z" fill="#FFFFFF"/>
      <path d="M4 63 L95 63 L95 67 L4 67 Z" fill="#38BDF8"/>
      <path d="M8 58 C10 42 28 36 46 30 L66 10 C72 8 78 12 80 20 L88 20 C92 24 93 38 92 58 Z" fill="#FFFFFF"/>
      <path d="M8 58 C10 46 24 42 38 42 L44 58 Z" fill="#38BDF8"/>
      <path d="M58 28 L88 22 L92 58 L66 58 Z" fill="#38BDF8"/>
      <path d="M42 38 L78 30 L74 38 L44 45 Z" fill="#111111"/>
    </g>

    <g id="jordan-mocha">
      <path d="M4 58 L92 58 C96 58 98 62 94 65 L6 65 Z" fill="#F5F5DC"/>
      <path d="M4 63 L95 63 L95 67 L4 67 Z" fill="#111111"/>
      <path d="M8 58 C10 42 28 36 46 30 L66 10 C72 8 78 12 80 20 L88 20 C92 24 93 38 92 58 Z" fill="#FFFFFF"/>
      <path d="M8 58 C10 46 24 42 38 42 L44 58 Z" fill="#111111"/>
      <path d="M58 28 L88 22 L92 58 L66 58 Z" fill="#6F4E37"/>
      <path d="M42 38 L78 30 L74 38 L44 45 Z" fill="#F5F5DC"/>
    </g>

    <g id="jordan-yellow">
      <path d="M4 58 L92 58 C96 58 98 62 94 65 L6 65 Z" fill="#FFFFFF"/>
      <path d="M4 63 L95 63 L95 67 L4 67 Z" fill="#FACC15"/>
      <path d="M8 58 C10 42 28 36 46 30 L66 10 C72 8 78 12 80 20 L88 20 C92 24 93 38 92 58 Z" fill="#FFFFFF"/>
      <path d="M8 58 C10 46 24 42 38 42 L44 58 Z" fill="#FACC15"/>
      <path d="M58 28 L88 22 L92 58 L66 58 Z" fill="#111111"/>
      <path d="M42 38 L78 30 L74 38 L44 45 Z" fill="#FACC15"/>
    </g>

    <!-- Reusable Crocs Clog Template -->
    <g id="crocs-lime">
      <path d="M6 54 C6 36 30 28 56 28 L76 36 C86 40 92 46 92 56 C92 63 86 66 76 66 L16 66 C8 66 6 60 6 54 Z" fill="#84CC16"/>
      <path d="M8 58 L90 58 L90 65 L8 65 Z" fill="#65A30D"/>
      <path d="M62 34 L88 42 C92 44 92 50 86 50 L58 42 Z" fill="#3F6212"/>
      <circle cx="22" cy="44" r="2.5" fill="#111111"/>
      <circle cx="32" cy="42" r="2.5" fill="#111111"/>
      <circle cx="42" cy="42" r="2.5" fill="#111111"/>
      <circle cx="26" cy="50" r="2.5" fill="#111111"/>
      <circle cx="37" cy="50" r="2.5" fill="#111111"/>
    </g>

    <g id="crocs-red">
      <path d="M6 54 C6 36 30 28 56 28 L76 36 C86 40 92 46 92 56 C92 63 86 66 76 66 L16 66 C8 66 6 60 6 54 Z" fill="#EF4444"/>
      <path d="M8 58 L90 58 L90 65 L8 65 Z" fill="#FFFFFF"/>
      <path d="M62 34 L88 42 C92 44 92 50 86 50 L58 42 Z" fill="#991B1B"/>
      <circle cx="22" cy="44" r="2.5" fill="#111111"/>
      <circle cx="32" cy="42" r="2.5" fill="#111111"/>
      <circle cx="42" cy="42" r="2.5" fill="#111111"/>
      <circle cx="26" cy="50" r="2.5" fill="#111111"/>
      <circle cx="37" cy="50" r="2.5" fill="#111111"/>
    </g>

    <g id="crocs-white">
      <path d="M6 54 C6 36 30 28 56 28 L76 36 C86 40 92 46 92 56 C92 63 86 66 76 66 L16 66 C8 66 6 60 6 54 Z" fill="#F8FAFC"/>
      <path d="M8 58 L90 58 L90 65 L8 65 Z" fill="#E2E8F0"/>
      <path d="M62 34 L88 42 C92 44 92 50 86 50 L58 42 Z" fill="#94A3B8"/>
      <circle cx="22" cy="44" r="2.5" fill="#111111"/>
      <circle cx="32" cy="42" r="2.5" fill="#111111"/>
      <circle cx="42" cy="42" r="2.5" fill="#111111"/>
      <circle cx="26" cy="50" r="2.5" fill="#111111"/>
      <circle cx="37" cy="50" r="2.5" fill="#111111"/>
    </g>

    <g id="crocs-yellow">
      <path d="M6 54 C6 36 30 28 56 28 L76 36 C86 40 92 46 92 56 C92 63 86 66 76 66 L16 66 C8 66 6 60 6 54 Z" fill="#FACC15"/>
      <path d="M8 58 L90 58 L90 65 L8 65 Z" fill="#EAB308"/>
      <path d="M62 34 L88 42 C92 44 92 50 86 50 L58 42 Z" fill="#111111"/>
      <circle cx="22" cy="44" r="2.5" fill="#111111"/>
      <circle cx="32" cy="42" r="2.5" fill="#111111"/>
      <circle cx="42" cy="42" r="2.5" fill="#111111"/>
      <circle cx="26" cy="50" r="2.5" fill="#111111"/>
      <circle cx="37" cy="50" r="2.5" fill="#111111"/>
    </g>

    <!-- Reusable Adidas Samba / Low Sneaker Template -->
    <g id="samba-bw">
      <path d="M4 58 L94 58 L94 66 L4 66 Z" fill="#B45309"/>
      <path d="M6 58 C8 40 28 36 50 30 L72 38 C84 40 92 44 92 58 Z" fill="#111111"/>
      <line x1="38" y1="36" x2="32" y2="56" stroke="#FFFFFF" stroke-width="4"/>
      <line x1="48" y1="36" x2="42" y2="56" stroke="#FFFFFF" stroke-width="4"/>
      <line x1="58" y1="36" x2="52" y2="56" stroke="#FFFFFF" stroke-width="4"/>
    </g>

    <!-- Reusable On Cloud Runner Template -->
    <g id="oncloud-runner">
      <path d="M4 54 C8 38 30 34 52 26 L76 34 C88 36 94 44 94 54 Z" fill="#F8FAFC"/>
      <path d="M24 42 L68 36 L64 48 L22 50 Z" fill="#D90429"/>
      <rect x="6" y="54" width="16" height="11" rx="5" fill="#FFFFFF" stroke="#111111" stroke-width="2"/>
      <rect x="26" y="54" width="16" height="11" rx="5" fill="#FFFFFF" stroke="#111111" stroke-width="2"/>
      <rect x="46" y="54" width="16" height="11" rx="5" fill="#FFFFFF" stroke="#111111" stroke-width="2"/>
      <rect x="66" y="54" width="22" height="11" rx="5" fill="#FFFFFF" stroke="#111111" stroke-width="2"/>
    </g>
  </defs>

  <!-- Store Interior Background -->
  <rect width="1600" height="720" fill="url(#bgGrad)"/>

  <!-- Perspective Sneaker Wall Grid (6 Illuminated Shelves × 12 Bays of Shoes = 72+ Visible Pairs) -->
  <g transform="translate(320, 20)">
    <!-- Vertical Rack Pillars -->
    <rect x="0" y="0" width="1260" height="680" fill="#121215" stroke="#2A2A32" stroke-width="4"/>
    
    <!-- Shelf 1: Air Jordan 1 Highs Collection -->
    <rect x="10" y="12" width="1240" height="95" fill="url(#shelfGlow)"/>
    <rect x="10" y="10" width="1240" height="4" fill="url(#redLed)"/>
    <rect x="10" y="104" width="1240" height="6" fill="#2E2E36"/>
    <g transform="translate(25, 34)">
      <use href="#jordan-red" x="0"/>
      <use href="#jordan-mocha" x="110"/>
      <use href="#jordan-blue" x="220"/>
      <use href="#jordan-yellow" x="330"/>
      <use href="#jordan-red" x="440"/>
      <use href="#jordan-blue" x="550"/>
      <use href="#jordan-mocha" x="660"/>
      <use href="#jordan-red" x="770"/>
      <use href="#jordan-yellow" x="880"/>
      <use href="#jordan-blue" x="990"/>
      <use href="#jordan-red" x="1100"/>
    </g>

    <!-- Shelf 2: Air Jordan 1 Lows & Travis Mocha Collection -->
    <rect x="10" y="122" width="1240" height="95" fill="url(#shelfGlow)"/>
    <rect x="10" y="120" width="1240" height="3" fill="#FDE68A" opacity="0.85"/>
    <rect x="10" y="214" width="1240" height="6" fill="#2E2E36"/>
    <g transform="translate(25, 144)">
      <use href="#jordan-blue" x="0"/>
      <use href="#jordan-red" x="110"/>
      <use href="#jordan-yellow" x="220"/>
      <use href="#jordan-mocha" x="330"/>
      <use href="#jordan-blue" x="440"/>
      <use href="#jordan-red" x="550"/>
      <use href="#jordan-yellow" x="660"/>
      <use href="#jordan-mocha" x="770"/>
      <use href="#jordan-red" x="880"/>
      <use href="#jordan-blue" x="990"/>
      <use href="#jordan-mocha" x="1100"/>
    </g>

    <!-- Shelf 3: Colorful Crocs Clogs Row -->
    <rect x="10" y="232" width="1240" height="95" fill="url(#shelfGlow)"/>
    <rect x="10" y="230" width="1240" height="3" fill="#FDE68A" opacity="0.85"/>
    <rect x="10" y="324" width="1240" height="6" fill="#2E2E36"/>
    <g transform="translate(25, 254)">
      <use href="#crocs-red" x="0"/>
      <use href="#crocs-lime" x="110"/>
      <use href="#crocs-white" x="220"/>
      <use href="#crocs-yellow" x="330"/>
      <use href="#crocs-red" x="440"/>
      <use href="#crocs-white" x="550"/>
      <use href="#crocs-lime" x="660"/>
      <use href="#crocs-yellow" x="770"/>
      <use href="#crocs-red" x="880"/>
      <use href="#crocs-lime" x="990"/>
      <use href="#crocs-white" x="1100"/>
    </g>

    <!-- Shelf 4: On Cloud Runners & Performance Sneakers -->
    <rect x="10" y="342" width="1240" height="95" fill="url(#shelfGlow)"/>
    <rect x="10" y="340" width="1240" height="3" fill="#FDE68A" opacity="0.85"/>
    <rect x="10" y="434" width="1240" height="6" fill="#2E2E36"/>
    <g transform="translate(25, 364)">
      <use href="#oncloud-runner" x="0"/>
      <use href="#samba-bw" x="110"/>
      <use href="#oncloud-runner" x="220"/>
      <use href="#jordan-red" x="330"/>
      <use href="#oncloud-runner" x="440"/>
      <use href="#samba-bw" x="550"/>
      <use href="#oncloud-runner" x="660"/>
      <use href="#jordan-blue" x="770"/>
      <use href="#oncloud-runner" x="880"/>
      <use href="#samba-bw" x="990"/>
      <use href="#oncloud-runner" x="1100"/>
    </g>

    <!-- Shelf 5: Adidas Sambas, New Balance & Streetwear Classics -->
    <rect x="10" y="452" width="1240" height="95" fill="url(#shelfGlow)"/>
    <rect x="10" y="450" width="1240" height="3" fill="#FDE68A" opacity="0.85"/>
    <rect x="10" y="544" width="1240" height="6" fill="#2E2E36"/>
    <g transform="translate(25, 474)">
      <use href="#samba-bw" x="0"/>
      <use href="#jordan-mocha" x="110"/>
      <use href="#samba-bw" x="220"/>
      <use href="#crocs-white" x="330"/>
      <use href="#samba-bw" x="440"/>
      <use href="#jordan-red" x="550"/>
      <use href="#samba-bw" x="660"/>
      <use href="#oncloud-runner" x="770"/>
      <use href="#samba-bw" x="880"/>
      <use href="#jordan-yellow" x="990"/>
      <use href="#samba-bw" x="1100"/>
    </g>

    <!-- Shelf 6: Mixed Jordans, Crocs & Runners Row -->
    <rect x="10" y="562" width="1240" height="95" fill="url(#shelfGlow)"/>
    <rect x="10" y="560" width="1240" height="3" fill="url(#redLed)"/>
    <rect x="10" y="654" width="1240" height="8" fill="#2E2E36"/>
    <g transform="translate(25, 584)">
      <use href="#crocs-yellow" x="0"/>
      <use href="#jordan-red" x="110"/>
      <use href="#crocs-lime" x="220"/>
      <use href="#oncloud-runner" x="330"/>
      <use href="#jordan-blue" x="440"/>
      <use href="#crocs-red" x="550"/>
      <use href="#jordan-mocha" x="660"/>
      <use href="#crocs-white" x="770"/>
      <use href="#jordan-red" x="880"/>
      <use href="#oncloud-runner" x="990"/>
      <use href="#crocs-lime" x="1100"/>
    </g>

    <!-- Vertical Shelf Dividers -->
    <rect x="320" y="10" width="5" height="650" fill="#23232B"/>
    <rect x="650" y="10" width="5" height="650" fill="#23232B"/>
    <rect x="980" y="10" width="5" height="650" fill="#23232B"/>
  </g>
</svg>
